<svg xmlns="http://www.w3.org/2000/svg" xmlns:svg="http://www.w3.org/2000/svg" id="svg8" width="64" height="64" version="1.1" viewBox="0 0 16.933 16.933"><metadata id="metadata5"/><g id="layer1" transform="translate(-107.87666,-24.618942)"><g aria-label="🖵" transform="matrix(1.7493113,0,0,1.7493113,-47.955951,-29.472907)" style="font-style:normal;font-variant:normal;font-weight:700;font-stretch:normal;font-size:10px;line-height:125%;font-family:'Adobe Garamond Pro';-inkscape-font-specification:'Adobe Garamond Pro Bold';text-align:start;letter-spacing:0;word-spacing:0;writing-mode:lr-tb;text-anchor:start;fill:#000;fill-opacity:1;stroke:none;stroke-width:.57165354px;stroke-linecap:butt;stroke-linejoin:miter;stroke-opacity:1" id="flowRoot4747"><path d="m 91.792266,39.911797 v -0.32 q 0,-0.14 0.1,-0.23 0.11,-0.1 0.26,-0.1 h 1.26 v -0.56 h -3.85 q -0.2,0 -0.34,-0.14 -0.14,-0.15 -0.14,-0.35 v -6.12 q 0,-0.2 0.14,-0.34 0.14,-0.14 0.34,-0.14 h 8.72 q 0.19,0 0.33,0.14 0.15,0.14 0.15,0.34 v 6.12 q 0,0.2 -0.15,0.35 -0.14,0.14 -0.33,0.14 h -3.86 v 0.56 h 1.26 q 0.15,0 0.25,0.1 0.11,0.09 0.11,0.23 v 0.32 z m -1.72,-2.46 h 7.69 q 0.15,0 0.25,-0.11 0.11,-0.11 0.11,-0.26 v -4.4 q 0,-0.16 -0.11,-0.27 -0.1,-0.11 -0.25,-0.11 h -7.69 q -0.15,0 -0.26,0.11 -0.1,0.11 -0.1,0.27 v 4.4 q 0,0.15 0.1,0.26 0.11,0.11 0.26,0.11 z m 7.93,0.75 q 0.13,0 0.13,-0.14 0,-0.13 -0.13,-0.13 -0.14,0 -0.14,0.13 0,0.14 0.14,0.14 z" style="stroke-width:.57165354px" id="path4851"/></g></g></svg>