<svg xmlns="http://www.w3.org/2000/svg" xmlns:svg="http://www.w3.org/2000/svg" id="svg8" width="64" height="64" version="1.1" viewBox="0 0 16.933 16.933"><metadata id="metadata5"/><g id="layer1" transform="translate(-107.87666,-24.618942)"><flowRoot id="flowRoot5064" xml:space="preserve" style="fill:#000;stroke:none;stroke-opacity:1;stroke-width:1px;stroke-linejoin:miter;stroke-linecap:butt;fill-opacity:1;font-family:Adobe Garamond Pro;font-style:normal;font-weight:700;font-size:10px;line-height:125%;letter-spacing:0;word-spacing:0;-inkscape-font-specification:Adobe Garamond Pro Bold;font-stretch:normal;font-variant:normal;text-anchor:start;text-align:start;writing-mode:lr"><flowRegion id="flowRegion5066"><rect id="rect5068" width="50.893" height="43.571" x="-72.321" y="5.429"/></flowRegion><flowPara id="flowPara5070"/></flowRoot><g aria-label="🖴" transform="matrix(1.8649046,0,0,1.8649046,248.12652,14.45492)" style="font-style:normal;font-variant:normal;font-weight:700;font-stretch:normal;font-size:10px;line-height:125%;font-family:'Adobe Garamond Pro';-inkscape-font-specification:'Adobe Garamond Pro Bold';text-align:start;letter-spacing:0;word-spacing:0;writing-mode:lr-tb;text-anchor:start;fill:#000;fill-opacity:1;stroke:none;stroke-width:.141875px;stroke-linecap:butt;stroke-linejoin:miter;stroke-opacity:1" id="flowRoot5072"><path d="m -75.064844,9.6551562 1.16,-2.35 q 0.07,-0.1299999 0.14,-0.24 0.08,-0.12 0.24,-0.12 h 5.72 q 0.16,0 0.23,0.12 0.08,0.1100001 0.15,0.24 l 1.16,2.35 z m 4.4,-0.4 q 0.62,0 1.12,-0.1399999 0.51,-0.14 0.8,-0.37 0.3,-0.23 0.3,-0.5100001 0,-0.28 -0.3,-0.5 -0.29,-0.23 -0.8,-0.36 -0.5,-0.14 -1.12,-0.14 -0.8,0 -1.41,0.23 -0.6,0.23 -0.77,0.5800001 l 1.32,0.01 -0.03,0.21 -1.31,0.11 q 0.07,0.24 0.37,0.44 0.31,0.2 0.78,0.32 0.48,0.1199999 1.05,0.1199999 z m 0,-0.7899999 q -0.24,0 -0.42,-0.08 -0.17,-0.09 -0.17,-0.2 0,-0.1100001 0.17,-0.1900001 0.18,-0.08 0.42,-0.08 0.25,0 0.43,0.08 0.18,0.08 0.18,0.1900001 0,0.11 -0.18,0.2 -0.18,0.08 -0.43,0.08 z m -4.02,4.5699997 q -0.22,0 -0.37,-0.15 -0.15,-0.16 -0.15,-0.37 V 9.9851562 h 9.08 v 2.5299998 q 0,0.21 -0.15,0.37 -0.14,0.15 -0.37,0.15 z m -0.05,-2.05 h 8.14 v -0.47 h -8.14 z m 7.8,1.08 q 0.13,0 0.21,-0.09 0.08,-0.09 0.08,-0.22 0,-0.11 -0.08,-0.2 -0.08,-0.09 -0.21,-0.09 -0.13,0 -0.22,0.09 -0.09,0.09 -0.09,0.2 0,0.13 0.09,0.22 0.09,0.09 0.22,0.09 z" style="stroke-width:.141875px" id="path5080"/></g></g></svg>