<svg xmlns="http://www.w3.org/2000/svg" xmlns:svg="http://www.w3.org/2000/svg" id="svg8" width="64" height="64" version="1.1" viewBox="0 0 16.933 16.933"><metadata id="metadata5"/><g id="layer1" transform="translate(-107.87666,-24.618942)"><g aria-label="🖰" transform="matrix(2.0925222,0,0,2.0925222,225.46869,4.2347952)" style="font-style:normal;font-variant:normal;font-weight:700;font-stretch:normal;font-size:10px;line-height:125%;font-family:'Adobe Garamond Pro';-inkscape-font-specification:'Adobe Garamond Pro Bold';text-align:start;letter-spacing:0;word-spacing:0;writing-mode:lr-tb;text-anchor:start;fill:#000;fill-opacity:1;stroke:none;stroke-width:.20230769;stroke-linecap:butt;stroke-linejoin:miter;stroke-miterlimit:4;stroke-dasharray:none;stroke-opacity:1" id="flowRoot4916"><path d="m -52.145156,17.732578 q -1.41,0 -2.15,-0.75 -0.73,-0.76 -0.73,-2.21 v -0.46 l 0.13,-2.72 q 0.04,-0.91 0.39,-1.33 0.36,-0.4199999 1.08,-0.4199999 0.2,0 0.44,0.03 l 2.48,0.2499999 q 0.55,0.05 0.79,0.35 0.25,0.29 0.28,0.9 l 0.16,3.14 v 0.29 q 0,1.42 -0.74,2.18 -0.73,0.75 -2.13,0.75 z m -2.48,-5.45 q 0.35,-0.04 0.71,-0.05 0.37,-0.02 0.73,-0.02 0.28,0 0.55,0.01 0.28,0.01 0.55,0.03 v -2 l -0.93,-0.09 q -0.11,-0.01 -0.22,-0.02 -0.1,-0.01 -0.19,-0.01 -0.59,0 -0.86,0.34 -0.27,0.33 -0.31,1.13 z m 4.96,0.39 -0.07,-1.29 q -0.03,-0.5 -0.21,-0.71 -0.17,-0.21 -0.6,-0.26 l -1.26,-0.13 v 2 q 0.56,0.05 1.1,0.16 0.55,0.1 1.04,0.23 z m -2.47,4.77 q 2.56,0 2.56,-2.64 v -0.27 l -0.08,-1.55 q -0.89,-0.24 -1.75,-0.35 -0.86,-0.12 -1.73,-0.12 -0.38,0 -0.75,0.02 -0.37,0.02 -0.76,0.06 l -0.08,1.71 v 0.47 q 0,2.67 2.59,2.67 z" style="stroke:#000;stroke-width:.20230769;stroke-miterlimit:4;stroke-dasharray:none;stroke-opacity:1" id="path5033"/></g></g></svg>