<svg xmlns="http://www.w3.org/2000/svg" xmlns:svg="http://www.w3.org/2000/svg" id="svg8" width="64" height="64" version="1.1" viewBox="0 0 16.933 16.933"><metadata id="metadata5"/><g id="layer1" transform="translate(-107.87666,-24.618942)"><g aria-label="⏻" transform="matrix(1.9608076,0,0,1.9608076,269.69365,18.4972)" style="font-style:normal;font-variant:normal;font-weight:700;font-stretch:normal;font-size:10px;line-height:125%;font-family:'Adobe Garamond Pro';-inkscape-font-specification:'Adobe Garamond Pro Bold';text-align:start;letter-spacing:0;word-spacing:0;writing-mode:lr-tb;text-anchor:start;fill:#000;fill-opacity:1;stroke:none;stroke-width:.21589744;stroke-linecap:butt;stroke-linejoin:miter;stroke-miterlimit:4;stroke-dasharray:none;stroke-opacity:1" id="flowRoot4958"><path d="M -78.747734,7.26 V 3.23 h 1.04 v 4.03 z m 0.54,4.39 q -0.87,0 -1.6,-0.3 -0.73,-0.29 -1.27,-0.82 -0.54,-0.53 -0.84,-1.24 -0.3,-0.72 -0.3,-1.57 0,-0.96 0.4,-1.84 0.4,-0.89 1.18,-1.45 l 0.54,0.7 q -0.43,0.29 -0.71,0.72 -0.27,0.43 -0.41,0.92 -0.13,0.49 -0.13,0.95 0,0.64 0.23,1.2 0.23,0.56 0.65,0.98 0.43,0.42 1,0.66 0.57,0.23 1.25,0.23 0.69,0 1.26,-0.23 0.58,-0.24 1,-0.66 0.42,-0.42 0.65,-0.98 0.24,-0.56 0.24,-1.2 0,-0.46 -0.14,-0.95 -0.13,-0.49 -0.41,-0.92 -0.27,-0.43 -0.7,-0.72 l 0.54,-0.7 q 0.78,0.56 1.18,1.45 0.4,0.88 0.4,1.84 0,0.85 -0.3,1.57 -0.3,0.71 -0.84,1.24 -0.54,0.53 -1.28,0.82 -0.73,0.3 -1.59,0.3 z" style="stroke:#000;stroke-width:.21589744;stroke-miterlimit:4;stroke-dasharray:none;stroke-opacity:1" id="path4998"/></g></g></svg>